<?xml version="1.0" encoding="utf-8"?>
<!-- Generator: Adobe Illustrator 25.2.0, SVG Export Plug-In . SVG Version: 6.00 Build 0)  -->
<svg version="1.1" xmlns="http://www.w3.org/2000/svg" xmlns:xlink="http://www.w3.org/1999/xlink" x="0px" y="0px"
	 viewBox="0 0 568.9 236.6" style="enable-background:new 0 0 568.9 236.6;" xml:space="preserve">
<style type="text/css">
	.st0{fill:#596235;}
	.st1{fill:#FFFFFF;}
</style>
<g id="Background">
	<circle class="st0" cx="284.4" cy="118.3" r="118.3"/>
	<g>
		<path class="st1" d="M80.3,157.8c0,4.3-3.5,7.9-7.9,7.9c-4,0-7.1-2.8-7.8-6.3c-5.6,3.8-12.6,6.3-20,6.3
			c-19.8,0-35.7-16.8-35.7-36.6c0-20.1,15.9-36.9,35.7-36.9c7.2,0,14.3,2.4,19.7,6.2V70.7c0-4.3,3.5-7.9,8.1-7.9
			c4.4,0,7.9,3.7,7.9,7.9v58.2c0,0,0,0,0,0.1V157.8z M44.5,108.2c-5.3,0-10.1,2.2-13.8,6c-3.7,3.7-5.9,9-5.9,14.8
			c0,5.6,2.2,10.9,5.9,14.6c3.7,3.8,8.5,6,13.8,6c5.4,0,10.1-2.2,13.8-6c3.7-3.7,5.9-9,5.9-14.6c0-5.9-2.2-11.2-5.9-14.8
			C54.7,110.4,50,108.2,44.5,108.2z"/>
		<path class="st1" d="M172.9,129.1v28.8c0,4.3-3.5,7.8-7.8,7.8c-3.8,0-6.8-2.8-7.6-6.3c-5.6,4-12.2,6.3-19.6,6.3
			c-10,0-18.7-4.1-25-10.7c-6.3-6.8-10-15.9-10-25.9c0-10.1,3.7-19.3,10-25.9c6.3-6.8,15-11,25-11c7.4,0,14,2.5,19.6,6.5
			c0.9-3.7,3.8-6.5,7.6-6.5c4.3,0,7.8,3.5,7.8,7.9V129.1z M157.3,129.1c0-6.2-2.2-11.5-5.7-15.1c-3.5-4-8.5-6-13.7-6
			c-5.3,0-10.3,2.1-13.7,6c-3.5,3.7-5.6,9-5.6,15.1c0,6,2.1,11.3,5.6,15.1c3.4,3.7,8.4,5.7,13.7,5.7c5.1,0,10.1-2.1,13.7-5.7
			C155.1,140.4,157.3,135.1,157.3,129.1z"/>
		<path class="st1" d="M261.5,122.8v35.1c0,4.3-3.4,7.8-7.6,7.8c-4.1,0-7.8-3.5-7.8-7.8v-35.1c0-8.2-6.9-14.8-15.3-14.8
			c-8.2,0-14.7,6.6-14.7,14.8v35.1c0,0.4,0,0.9-0.3,1.5c-0.7,3.5-4,6.3-7.8,6.3c-4.4,0-7.8-3.5-7.8-7.8v-35.1V100
			c0-4.3,3.4-7.8,7.8-7.8c3.1,0,5.9,1.8,7.2,4.6c4.4-2.8,9.8-4.6,15.6-4.6C247.8,92.2,261.5,106.2,261.5,122.8z"/>
		<path class="st1" d="M306.3,73.8c0,4.4-3.4,8.1-7.9,8.1c-4.4,0-7.9-3.7-7.9-8.1v-3.1c0-4.4,3.5-7.9,7.9-7.9c4.6,0,7.9,3.5,7.9,7.9
			V73.8z M306.3,100.4v57.3c0,4.4-3.4,7.9-7.9,7.9c-4.4,0-7.9-3.5-7.9-7.9v-57.3c0-4.7,3.5-8.1,7.9-8.1
			C303,92.3,306.3,95.7,306.3,100.4z"/>
		<path class="st1" d="M326.5,128.9c0.1-20,15.7-36.8,35.9-36.8c19.1,0,34.3,14.3,35.4,34.1c0,0.1,0,0.4,0,0.7s0,1-0.1,1.3
			c-0.4,3.5-3.5,5.9-7.6,5.9h-46.7c0.7,3.4,2.4,7.2,5,9.7c3.1,3.5,9,6.2,14.1,6.6c5.3,0.4,11.6-0.9,15.3-3.7c3.1-3.2,9.1-2.8,11-0.4
			c1.9,2.1,3.4,6.5,0,9.6c-7.2,6.6-15.9,9.7-26.3,9.7C342.2,165.5,326.6,148.9,326.5,128.9z M342.5,121.7h41.6
			c-1.5-5.9-9-14.6-21.8-15.6C349.9,106.7,343.7,115.7,342.5,121.7z"/>
		<path class="st1" d="M430.3,62.8c4.6,0,8.2,3.7,8.2,8.1v86.7c0,4.4-3.7,8.1-8.2,8.1c-4.4,0-8.1-3.7-8.1-8.1V70.9
			C422.2,66.5,425.9,62.8,430.3,62.8z"/>
		<path class="st1" d="M519.9,129.1v28.8c0,4.3-3.5,7.8-7.8,7.8c-3.8,0-6.8-2.8-7.6-6.3c-5.6,4-12.2,6.3-19.6,6.3
			c-10,0-18.7-4.1-25-10.7c-6.3-6.8-10-15.9-10-25.9c0-10.1,3.7-19.3,10-25.9c6.3-6.8,15-11,25-11c7.4,0,14,2.5,19.6,6.5
			c0.9-3.7,3.8-6.5,7.6-6.5c4.3,0,7.8,3.5,7.8,7.9V129.1z M504.4,129.1c0-6.2-2.2-11.5-5.7-15.1c-3.5-4-8.5-6-13.7-6
			c-5.3,0-10.3,2.1-13.7,6c-3.5,3.7-5.6,9-5.6,15.1c0,6,2.1,11.3,5.6,15.1c3.4,3.7,8.4,5.7,13.7,5.7c5.1,0,10.1-2.1,13.7-5.7
			C502.1,140.4,504.4,135.1,504.4,129.1z"/>
		<path class="st1" d="M558,144.8c6,0,11,5,11,11s-5,10.9-11,10.9c-6,0-10.9-4.9-10.9-10.9S552,144.8,558,144.8z"/>
	</g>
</g>
<g id="Illustration">
</g>
</svg>
